name rise30.2954peak35.7071fall66.7804.mot
datacolumns 19
datarows 32
range 18.41659800000000 18.46827100000000
endheader
time	ground_force1_vx	ground_force1_vy	ground_force1_vz	ground_force1_px	ground_force1_py	ground_force1_pz	ground_force2_vx	ground_force2_vy	ground_force2_vz	ground_force2_px	ground_force2_py	ground_force2_pz	ground_torque1_x	ground_torque1_y	ground_torque1_z	ground_torque2_x	ground_torque2_y	ground_torque2_z	
18.41659800000000	-1.59545000000000	42.35539300000000	-9.53347600000000	0.23859600000000	0.00000000000000	0.09657600000000	-45.19428200000000	795.67662499999994	-54.69863500000000	0.05477600000000	0.00000000000000	-0.08053100000000	0.00000000000000	-5.32607200000000	0.00000000000000	0.00000000000000	-11.49314000000000	0.00000000000000	
18.41826600000000	-1.58760200000000	49.71411500000000	-10.72259900000000	0.24376800000000	0.00000000000000	0.09747000000000	-46.17887700000000	793.14072599999997	-54.39403800000000	0.05392900000000	0.00000000000000	-0.08042400000000	0.00000000000000	-6.08549900000000	0.00000000000000	0.00000000000000	-11.55024800000000	0.00000000000000	
18.41992900000000	-1.50085000000000	57.18298600000000	-11.80353400000000	0.24847000000000	0.00000000000000	0.09828200000000	-47.18469700000000	790.46680800000001	-54.06612200000000	0.05308200000000	0.00000000000000	-0.08031400000000	0.00000000000000	-6.80274900000000	0.00000000000000	0.00000000000000	-11.61193900000000	0.00000000000000	
18.42160400000000	-1.32841000000000	64.66682000000000	-12.75088600000000	0.25277900000000	0.00000000000000	0.09902600000000	-48.21017900000000	787.65124000000003	-53.71444400000000	0.05223700000000	0.00000000000000	-0.08020100000000	0.00000000000000	-7.46200300000000	0.00000000000000	0.00000000000000	-11.67800800000000	0.00000000000000	
18.42326400000000	-1.06636200000000	72.09304299999999	-13.54771900000000	0.25675600000000	0.00000000000000	0.09971300000000	-49.25363900000000	784.69037600000001	-53.33859000000000	0.05139600000000	0.00000000000000	-0.08008400000000	0.00000000000000	-8.05197200000000	0.00000000000000	0.00000000000000	-11.74822400000000	0.00000000000000	
18.42493700000000	-0.71352700000000	79.41399699999999	-14.18567400000000	0.26044800000000	0.00000000000000	0.10034900000000	-50.31328000000000	781.58055800000000	-52.93817400000000	0.05055700000000	0.00000000000000	-0.07996300000000	0.00000000000000	-8.56613200000000	0.00000000000000	0.00000000000000	-11.82233400000000	0.00000000000000	
18.42660200000000	-0.27114700000000	86.60680600000001	-14.66436700000000	0.26389400000000	0.00000000000000	0.10094300000000	-51.38719100000000	778.31814099999997	-52.51284300000000	0.04972400000000	0.00000000000000	-0.07983900000000	0.00000000000000	-9.00252100000000	0.00000000000000	0.00000000000000	-11.90006200000000	0.00000000000000	
18.42826900000000	0.25756800000000	93.67123500000000	-14.99023400000000	0.26712500000000	0.00000000000000	0.10150000000000	-52.47334900000000	774.89949799999999	-52.06228100000000	0.04889700000000	0.00000000000000	-0.07971100000000	0.00000000000000	-9.36319900000000	0.00000000000000	0.00000000000000	-11.98111300000000	0.00000000000000	
18.42993300000000	0.86797200000000	100.62604700000000	-15.17502400000000	0.27016700000000	0.00000000000000	0.10202300000000	-53.56962900000000	771.32104300000003	-51.58621100000000	0.04807600000000	0.00000000000000	-0.07957900000000	0.00000000000000	-9.65347200000000	0.00000000000000	0.00000000000000	-12.06516700000000	0.00000000000000	
18.43159700000000	1.55453500000000	107.50443700000000	-15.23410800000000	0.27304200000000	0.00000000000000	0.10251800000000	-54.67380300000000	767.57923900000003	-51.08439800000000	0.04726300000000	0.00000000000000	-0.07944300000000	0.00000000000000	-9.88097500000000	0.00000000000000	0.00000000000000	-12.15188600000000	0.00000000000000	
18.43326600000000	2.31136000000000	114.34907500000000	-15.18479700000000	0.27576500000000	0.00000000000000	0.10298700000000	-55.78354700000000	763.67061999999999	-50.55665300000000	0.04645800000000	0.00000000000000	-0.07930300000000	0.00000000000000	-10.05472700000000	0.00000000000000	0.00000000000000	-12.24091200000000	0.00000000000000	
18.43493200000000	3.13263500000000	121.20723500000000	-15.04478600000000	0.27835300000000	0.00000000000000	0.10343200000000	-56.89644800000000	759.59180500000002	-50.00283700000000	0.04566200000000	0.00000000000000	-0.07915800000000	0.00000000000000	-10.18423400000000	0.00000000000000	0.00000000000000	-12.33186800000000	0.00000000000000	
18.43660300000000	4.01299400000000	128.12637500000000	-14.83084100000000	0.28081700000000	0.00000000000000	0.10385800000000	-58.01000700000000	755.33951800000000	-49.42286200000000	0.04487700000000	0.00000000000000	-0.07901000000000	0.00000000000000	-10.27870200000000	0.00000000000000	0.00000000000000	-12.42436100000000	0.00000000000000	
18.43826800000000	4.94777200000000	135.15045000000001	-14.55777900000000	0.28316600000000	0.00000000000000	0.10426400000000	-59.12164600000000	750.91060100000004	-48.81669300000000	0.04410200000000	0.00000000000000	-0.07885700000000	0.00000000000000	-10.34641000000000	0.00000000000000	0.00000000000000	-12.51798000000000	0.00000000000000	
18.43993700000000	5.93315500000000	142.31710600000000	-14.23777700000000	0.28540900000000	0.00000000000000	0.10465400000000	-60.22871800000000	746.30204000000003	-48.18435400000000	0.04333900000000	0.00000000000000	-0.07869900000000	0.00000000000000	-10.39426000000000	0.00000000000000	0.00000000000000	-12.61229800000000	0.00000000000000	
18.44160100000000	6.96622600000000	149.65581200000000	-13.88000100000000	0.28755400000000	0.00000000000000	0.10502900000000	-61.32850800000000	741.51097600000003	-47.52592800000000	0.04258800000000	0.00000000000000	-0.07853700000000	0.00000000000000	-10.42751000000000	0.00000000000000	0.00000000000000	-12.70687700000000	0.00000000000000	
18.44327100000000	8.04493400000000	157.18691500000000	-13.49053100000000	0.28960500000000	0.00000000000000	0.10538900000000	-62.41824500000000	736.53473399999996	-46.84156000000000	0.04185000000000	0.00000000000000	-0.07837100000000	0.00000000000000	-10.44968200000000	0.00000000000000	0.00000000000000	-12.80126400000000	0.00000000000000	
18.44493400000000	9.16799000000000	164.92150599999999	-13.07252600000000	0.29156800000000	0.00000000000000	0.10573800000000	-63.49510800000000	731.37083399999995	-46.13146000000000	0.04112500000000	0.00000000000000	-0.07820000000000	0.00000000000000	-10.46261200000000	0.00000000000000	0.00000000000000	-12.89499600000000	0.00000000000000	
18.44659600000000	10.33471400000000	172.86197400000000	-12.62658200000000	0.29344700000000	0.00000000000000	0.10607400000000	-64.55623300000001	726.01701600000001	-45.39590200000000	0.04041400000000	0.00000000000000	-0.07802400000000	0.00000000000000	-10.46662200000000	0.00000000000000	0.00000000000000	-12.98759900000000	0.00000000000000	
18.44826800000000	11.54485800000000	181.00306699999999	-12.15121700000000	0.29524400000000	0.00000000000000	0.10639900000000	-65.59872200000000	720.47126200000002	-44.63522700000000	0.03971700000000	0.00000000000000	-0.07784400000000	0.00000000000000	-10.46077700000000	0.00000000000000	0.00000000000000	-13.07859300000000	0.00000000000000	
18.44993500000000	12.79842000000000	189.33329699999999	-11.64341900000000	0.29696300000000	0.00000000000000	0.10671500000000	-66.61965100000000	714.73180900000000	-43.84984700000000	0.03903500000000	0.00000000000000	-0.07765900000000	0.00000000000000	-10.44318700000000	0.00000000000000	0.00000000000000	-13.16749000000000	0.00000000000000	
18.45159700000000	14.09546200000000	197.83651900000001	-11.09921900000000	0.29860500000000	0.00000000000000	0.10702200000000	-67.61607700000000	708.79717300000004	-43.04024100000000	0.03836700000000	0.00000000000000	-0.07747000000000	0.00000000000000	-10.41133400000000	0.00000000000000	0.00000000000000	-13.25379600000000	0.00000000000000	
18.45327000000000	15.43595200000000	206.49352300000001	-10.51422500000000	0.30017300000000	0.00000000000000	0.10731900000000	-68.58505000000000	702.66616599999998	-42.20695800000000	0.03771400000000	0.00000000000000	-0.07727600000000	0.00000000000000	-10.36237900000000	0.00000000000000	0.00000000000000	-13.33701700000000	0.00000000000000	
18.45493800000000	16.81962200000000	215.28354700000000	-9.88409200000000	0.30166700000000	0.00000000000000	0.10760900000000	-69.52361800000000	696.33790999999997	-41.35061800000000	0.03707600000000	0.00000000000000	-0.07707700000000	0.00000000000000	-10.29345100000000	0.00000000000000	0.00000000000000	-13.41665500000000	0.00000000000000	
18.45659700000000	18.24587600000000	224.18558300000001	-9.20491500000000	0.30309000000000	0.00000000000000	0.10789200000000	-70.42883600000000	689.81185500000004	-40.47191300000000	0.03645300000000	0.00000000000000	-0.07687300000000	0.00000000000000	-10.20188000000000	0.00000000000000	0.00000000000000	-13.49221200000000	0.00000000000000	
18.45826600000000	19.71371500000000	233.17944700000001	-8.47351000000000	0.30444000000000	0.00000000000000	0.10816700000000	-71.29777900000001	683.08778700000005	-39.57160500000000	0.03584500000000	0.00000000000000	-0.07666500000000	0.00000000000000	-10.08537500000000	0.00000000000000	0.00000000000000	-13.56319500000000	0.00000000000000	
18.45994300000000	21.22170500000000	242.24656700000000	-7.68760900000000	0.30572000000000	0.00000000000000	0.10843600000000	-72.12754700000001	676.16583900000001	-38.65052600000000	0.03525200000000	0.00000000000000	-0.07645200000000	0.00000000000000	-9.94215600000000	0.00000000000000	0.00000000000000	-13.62911100000000	0.00000000000000	
18.46160100000000	22.76797600000000	251.37049700000000	-6.84594700000000	0.30692900000000	0.00000000000000	0.10869800000000	-72.91527499999999	669.04650100000003	-37.70958000000000	0.03467300000000	0.00000000000000	-0.07623500000000	0.00000000000000	-9.77101300000000	0.00000000000000	0.00000000000000	-13.68947700000000	0.00000000000000	
18.46326400000000	24.35023600000000	260.53716300000002	-5.94827600000000	0.30806800000000	0.00000000000000	0.10895400000000	-73.65814500000000	661.73062200000004	-36.74974100000000	0.03410900000000	0.00000000000000	-0.07601300000000	0.00000000000000	-9.57132900000000	0.00000000000000	0.00000000000000	-13.74381400000000	0.00000000000000	
18.46493000000000	25.96581300000000	269.73488800000001	-4.99530400000000	0.30913600000000	0.00000000000000	0.10920500000000	-74.35339300000000	654.21941000000004	-35.77205100000000	0.03355800000000	0.00000000000000	-0.07578700000000	0.00000000000000	-9.34305200000000	0.00000000000000	0.00000000000000	-13.79165600000000	0.00000000000000	
18.46660500000000	27.61170700000000	278.95424000000003	-3.98858900000000	0.31013400000000	0.00000000000000	0.10945000000000	-74.99832200000000	646.51443600000005	-34.77762500000000	0.03302100000000	0.00000000000000	-0.07555600000000	0.00000000000000	-9.08664300000000	0.00000000000000	0.00000000000000	-13.83254700000000	0.00000000000000	
18.46827100000000	29.28465000000000	288.18774000000002	-2.93039600000000	0.31106100000000	0.00000000000000	0.10969000000000	-75.59031100000000	638.61763199999996	-33.76764100000000	0.03249700000000	0.00000000000000	-0.07532100000000	0.00000000000000	-8.80299200000000	0.00000000000000	0.00000000000000	-13.86604600000000	0.00000000000000	
